<mxfile host="app.diagrams.net" agent="Mozilla/5.0 (Windows NT 10.0; Win64; x64) AppleWebKit/537.36 (KHTML, like Gecko) Chrome/130.0.0.0 Safari/537.36 Avast/130.0.0.0" version="24.8.8">
  <diagram name="Page-1" id="tvMx0F_EAQn4TNGo5RMX">
    <mxGraphModel dx="880" dy="472" grid="1" gridSize="10" guides="1" tooltips="1" connect="1" arrows="1" fold="1" page="1" pageScale="1" pageWidth="850" pageHeight="1100" background="#FFFF99" math="0" shadow="0">
      <root>
        <mxCell id="0" />
        <mxCell id="1" parent="0" />
        <mxCell id="qzE703fwRlGEGIz_dHGC-1" value="&lt;font style=&quot;&quot;&gt;&lt;b style=&quot;font-size: 14px;&quot;&gt;1&lt;/b&gt;&lt;span style=&quot;font-size: 14px;&quot;&gt;. &lt;/span&gt;&lt;b style=&quot;font-size: 14px;&quot;&gt;User Management&lt;br&gt;&lt;/b&gt;&lt;br&gt;&lt;i style=&quot;font-size: 14px;&quot;&gt;User Registration:&lt;br&gt;&lt;/i&gt;&lt;br&gt;&lt;ul&gt;&lt;li&gt;&lt;font style=&quot;&quot;&gt;&lt;span style=&quot;font-size: 14px; background-color: initial;&quot;&gt;Allow users to sign up as guests or hosts.&lt;/span&gt;&lt;/font&gt;&lt;/li&gt;&lt;li&gt;&lt;font style=&quot;&quot;&gt;&lt;span style=&quot;font-size: 14px; background-color: initial;&quot;&gt;Use secure authentication methods like JWT (JSON Web Tokens).&lt;/span&gt;&lt;/font&gt;&lt;/li&gt;&lt;/ul&gt;&lt;br&gt;&lt;i style=&quot;font-size: 14px;&quot;&gt;User Login and Authentication:&lt;br&gt;&lt;/i&gt;&lt;br&gt;&lt;ul&gt;&lt;li&gt;&lt;font style=&quot;&quot;&gt;&lt;span style=&quot;font-size: 14px;&quot;&gt;Implement login via email and password.&lt;/span&gt;&lt;/font&gt;&lt;/li&gt;&lt;li&gt;&lt;font style=&quot;&quot;&gt;&lt;span style=&quot;font-size: 14px;&quot;&gt;Include OAuth options (e.g., Google, Facebook).&lt;/span&gt;&lt;/font&gt;&lt;/li&gt;&lt;/ul&gt;&lt;br&gt;&lt;i&gt;&lt;span style=&quot;font-size: 14px;&quot;&gt;Profile Management:&lt;/span&gt;&lt;br&gt;&lt;/i&gt;&lt;br&gt;&lt;ul&gt;&lt;li&gt;&lt;font style=&quot;&quot;&gt;&lt;span style=&quot;font-size: 14px;&quot;&gt;Enable users to update their profiles, including profile photos, contact info, and preferences.&lt;/span&gt;&lt;/font&gt;&lt;/li&gt;&lt;/ul&gt;&lt;br&gt;&lt;b style=&quot;font-size: 14px;&quot;&gt;2. Property Listings Management&lt;br&gt;&lt;/b&gt;&lt;br&gt;&lt;i style=&quot;font-size: 14px;&quot;&gt;Add Listings:&lt;br&gt;&lt;/i&gt;&lt;br&gt;&lt;ul&gt;&lt;li&gt;&lt;font style=&quot;&quot;&gt;&lt;span style=&quot;font-size: 14px;&quot;&gt;Hosts can create property listings by providing details such as title, description, location, price, amenities, and availability.&lt;/span&gt;&lt;/font&gt;&lt;/li&gt;&lt;/ul&gt;&lt;br&gt;&lt;span style=&quot;font-size: 14px;&quot;&gt;Edit/Delete Listings:&lt;/span&gt;&lt;br&gt;&lt;br&gt;&lt;ul&gt;&lt;li&gt;&lt;font style=&quot;&quot;&gt;&lt;span style=&quot;font-size: 14px;&quot;&gt;Hosts can update or remove their property listings.&lt;/span&gt;&lt;/font&gt;&lt;/li&gt;&lt;/ul&gt;&lt;br&gt;&lt;b style=&quot;font-size: 14px;&quot;&gt;3. Search and Filtering&lt;br&gt;&lt;/b&gt;&lt;br&gt;&lt;i style=&quot;font-size: 14px;&quot;&gt;Implement search functionality to allow users to find properties by:&lt;ul&gt;&lt;li&gt;&lt;font style=&quot;&quot;&gt;&lt;span style=&quot;font-size: 14px;&quot;&gt;Location&lt;/span&gt;&lt;/font&gt;&lt;/li&gt;&lt;li&gt;&lt;font style=&quot;&quot;&gt;&lt;span style=&quot;font-size: 14px;&quot;&gt;Price range&lt;/span&gt;&lt;/font&gt;&lt;/li&gt;&lt;li&gt;&lt;font style=&quot;&quot;&gt;&lt;span style=&quot;font-size: 14px;&quot;&gt;Number of guests&lt;/span&gt;&lt;/font&gt;&lt;/li&gt;&lt;li&gt;&lt;font style=&quot;&quot;&gt;&lt;span style=&quot;font-size: 14px;&quot;&gt;Amenities (e.g., Wi-Fi, pool, pet-friendly)&lt;/span&gt;&lt;/font&gt;&lt;/li&gt;&lt;li&gt;&lt;font style=&quot;&quot;&gt;&lt;span style=&quot;font-size: 14px;&quot;&gt;Include pagination for large datasets.&lt;/span&gt;&lt;/font&gt;&lt;/li&gt;&lt;/ul&gt;&lt;/i&gt;&lt;br&gt;&lt;b style=&quot;font-size: 14px;&quot;&gt;4. Booking Management&lt;br&gt;&lt;/b&gt;&lt;br&gt;&lt;i style=&quot;font-size: 14px;&quot;&gt;Booking Creation:&lt;br&gt;&lt;/i&gt;&lt;br&gt;&lt;ul&gt;&lt;li&gt;&lt;font style=&quot;&quot;&gt;&lt;span style=&quot;font-size: 14px;&quot;&gt;Guests can book a property for specified dates.&lt;/span&gt;&lt;/font&gt;&lt;/li&gt;&lt;li&gt;&lt;font style=&quot;&quot;&gt;&lt;br&gt;&lt;/font&gt;&lt;/li&gt;&lt;li&gt;&lt;font style=&quot;&quot;&gt;&lt;span style=&quot;font-size: 14px;&quot;&gt;Prevent double bookings using date validation.&lt;/span&gt;&lt;/font&gt;&lt;/li&gt;&lt;/ul&gt;&lt;br&gt;&lt;i style=&quot;font-size: 14px;&quot;&gt;Booking Cancellation:&lt;br&gt;&lt;/i&gt;&lt;br&gt;&lt;ul&gt;&lt;li&gt;&lt;font style=&quot;&quot;&gt;&lt;span style=&quot;font-size: 14px;&quot;&gt;Allow guests or hosts to cancel bookings based on the cancellation policy.&lt;/span&gt;&lt;/font&gt;&lt;/li&gt;&lt;/ul&gt;&lt;br&gt;&lt;i style=&quot;font-size: 14px;&quot;&gt;Booking Status:&lt;br&gt;&lt;/i&gt;&lt;br&gt;&lt;ul&gt;&lt;li&gt;&lt;font style=&quot;&quot;&gt;&lt;span style=&quot;font-size: 14px;&quot;&gt;Track booking statuses such as pending, confirmed, canceled, or completed.&lt;/span&gt;&lt;/font&gt;&lt;/li&gt;&lt;/ul&gt;&lt;br&gt;&lt;span style=&quot;font-size: 14px;&quot;&gt;&lt;b&gt;5. Payment Integration&lt;/b&gt;&lt;ul style=&quot;&quot;&gt;&lt;li style=&quot;&quot;&gt;&lt;font style=&quot;&quot;&gt;&lt;span style=&quot;font-size: 14px;&quot;&gt;Implement secure payment gateways (e.g., Stripe, PayPal) to handle:&lt;/span&gt;&lt;/font&gt;&lt;/li&gt;&lt;li style=&quot;&quot;&gt;&lt;font style=&quot;&quot;&gt;&lt;span style=&quot;font-size: 14px;&quot;&gt;Upfront payments by guests.&lt;/span&gt;&lt;/font&gt;&lt;/li&gt;&lt;li style=&quot;&quot;&gt;&lt;font style=&quot;&quot;&gt;&lt;span style=&quot;font-size: 14px;&quot;&gt;Automatic payouts to hosts after a booking is completed.&lt;/span&gt;&lt;/font&gt;&lt;/li&gt;&lt;li style=&quot;&quot;&gt;&lt;font style=&quot;&quot;&gt;&lt;span style=&quot;font-size: 14px;&quot;&gt;Include support for multiple currencies&lt;b&gt;.&lt;/b&gt;&lt;/span&gt;&lt;/font&gt;&lt;/li&gt;&lt;/ul&gt;&lt;/span&gt;&lt;br&gt;&lt;b style=&quot;font-size: 14px;&quot;&gt;6. Reviews and Ratings&lt;br&gt;&lt;/b&gt;&lt;br&gt;&lt;ul&gt;&lt;li&gt;&lt;font style=&quot;&quot;&gt;&lt;span style=&quot;font-size: 14px;&quot;&gt;Guests can leave reviews and ratings for properties.&lt;/span&gt;&lt;/font&gt;&lt;/li&gt;&lt;li&gt;&lt;font style=&quot;&quot;&gt;&lt;span style=&quot;font-size: 14px;&quot;&gt;Hosts can respond to reviews.&lt;/span&gt;&lt;/font&gt;&lt;/li&gt;&lt;li&gt;&lt;font style=&quot;&quot;&gt;&lt;span style=&quot;font-size: 14px;&quot;&gt;Ensure reviews are linked to specific bookings to prevent abuse.&lt;/span&gt;&lt;/font&gt;&lt;/li&gt;&lt;/ul&gt;&lt;br&gt;&lt;b style=&quot;font-size: 14px;&quot;&gt;7. Notifications System&lt;br&gt;&lt;/b&gt;&lt;br&gt;&lt;span style=&quot;font-size: 14px;&quot;&gt;Implement email and in-app notifications for:&lt;/span&gt;&lt;br&gt;&lt;br&gt;&lt;ul&gt;&lt;li&gt;&lt;font style=&quot;&quot;&gt;&lt;span style=&quot;font-size: 14px;&quot;&gt;Booking confirmations&lt;/span&gt;&lt;/font&gt;&lt;/li&gt;&lt;li&gt;&lt;font style=&quot;&quot;&gt;&lt;span style=&quot;font-size: 14px;&quot;&gt;Cancellations&lt;/span&gt;&lt;/font&gt;&lt;/li&gt;&lt;li&gt;&lt;font style=&quot;&quot;&gt;&lt;span style=&quot;font-size: 14px;&quot;&gt;Payment updates&lt;/span&gt;&lt;/font&gt;&lt;/li&gt;&lt;/ul&gt;&lt;br&gt;&lt;b style=&quot;font-size: 14px;&quot;&gt;8. Admin Dashboard&lt;br&gt;&lt;/b&gt;&lt;br&gt;&lt;i style=&quot;font-size: 14px;&quot;&gt;Create an admin interface for monitoring and managing:&lt;ul&gt;&lt;li&gt;&lt;font style=&quot;&quot;&gt;&lt;span style=&quot;font-size: 14px;&quot;&gt;Users&lt;/span&gt;&lt;/font&gt;&lt;/li&gt;&lt;li&gt;&lt;font style=&quot;&quot;&gt;&lt;span style=&quot;font-size: 14px;&quot;&gt;Listings&lt;/span&gt;&lt;/font&gt;&lt;/li&gt;&lt;li&gt;&lt;font style=&quot;&quot;&gt;&lt;span style=&quot;font-size: 14px;&quot;&gt;Bookings&lt;/span&gt;&lt;/font&gt;&lt;/li&gt;&lt;li&gt;&lt;font style=&quot;&quot;&gt;&lt;span style=&quot;font-size: 14px;&quot;&gt;Payments&lt;/span&gt;&lt;/font&gt;&lt;/li&gt;&lt;/ul&gt;&lt;/i&gt;&lt;/font&gt;" style="text;whiteSpace=wrap;html=1;" vertex="1" parent="1">
          <mxGeometry x="100" y="70" width="740" height="1670" as="geometry" />
        </mxCell>
      </root>
    </mxGraphModel>
  </diagram>
</mxfile>
